<svg id="S6.F4.pic1" class="ltx_picture ltx_centering" height="233.46" overflow="visible" version="1.1" viewbox="0 0 594.64 233.46" width="594.64"><g style="--ltx-stroke-color:#000000;--ltx-fill-color:#000000;" fill="#000000" stroke="#000000" stroke-width="0.4pt" transform="translate(0,233.46) matrix(1 0 0 -1 0 0) translate(23.5,0) translate(0,156.98)"><g style="--ltx-stroke-color:#000000;--ltx-fill-color:#000000;" fill="#000000" stroke="#000000" transform="matrix(1.0 0.0 0.0 1.0 4.89 63.56)"><foreignobject style="--ltx-fo-width:11.55em;--ltx-fo-height:0.71em;--ltx-fo-depth:0.24em;font-size:8.5pt;" height="11.07" overflow="visible" transform="matrix(1 0 0 -1 0 8.3)" width="135.87"><span class="ltx_foreignobject_container"><span class="ltx_foreignobject_content"><span id="S6.F4.pic1.1" class="ltx_text ltx_font_bold" style="font-size:80%;">(a)<span id="S6.F4.pic1.1.1" class="ltx_text ltx_font_medium"> <math id="S6.F4.pic1.m1" class="ltx_Math" alttext="16\times 16" display="inline" intent=":literal"><semantics><mrow><mn>16</mn><mo lspace="0.222em" rspace="0.222em">×</mo><mn>16</mn></mrow><annotation encoding="application/x-tex">16\times 16</annotation></semantics></math> squares (ViT default)</span></span></span></span></foreignobject></g><g style="--ltx-stroke-color:#000000;--ltx-fill-color:#F3F4F4;" fill="#F3F4F4" stroke="#000000" stroke-width="0.4pt"><path d="M 0 0 M 0 0 L 0 51.18 L 259.84 51.18 L 259.84 0 Z M 259.84 51.18" /></g><g style="--ltx-stroke-color:#B9BDC1;" stroke="#B9BDC1" stroke-width="0.2pt"><path style="fill:none" d="M 21.65 0 L 21.65 51.18" /></g><g style="--ltx-stroke-color:#B9BDC1;" stroke="#B9BDC1" stroke-width="0.2pt"><path style="fill:none" d="M 43.31 0 L 43.31 51.18" /></g><g style="--ltx-stroke-color:#B9BDC1;" stroke="#B9BDC1" stroke-width="0.2pt"><path style="fill:none" d="M 64.96 0 L 64.96 51.18" /></g><g style="--ltx-stroke-color:#B9BDC1;" stroke="#B9BDC1" stroke-width="0.2pt"><path style="fill:none" d="M 86.61 0 L 86.61 51.18" /></g><g style="--ltx-stroke-color:#B9BDC1;" stroke="#B9BDC1" stroke-width="0.2pt"><path style="fill:none" d="M 108.27 0 L 108.27 51.18" /></g><g style="--ltx-stroke-color:#B9BDC1;" stroke="#B9BDC1" stroke-width="0.2pt"><path style="fill:none" d="M 129.92 0 L 129.92 51.18" /></g><g style="--ltx-stroke-color:#B9BDC1;" stroke="#B9BDC1" stroke-width="0.2pt"><path style="fill:none" d="M 151.58 0 L 151.58 51.18" /></g><g style="--ltx-stroke-color:#B9BDC1;" stroke="#B9BDC1" stroke-width="0.2pt"><path style="fill:none" d="M 173.23 0 L 173.23 51.18" /></g><g style="--ltx-stroke-color:#B9BDC1;" stroke="#B9BDC1" stroke-width="0.2pt"><path style="fill:none" d="M 194.88 0 L 194.88 51.18" /></g><g style="--ltx-stroke-color:#B9BDC1;" stroke="#B9BDC1" stroke-width="0.2pt"><path style="fill:none" d="M 216.54 0 L 216.54 51.18" /></g><g style="--ltx-stroke-color:#B9BDC1;" stroke="#B9BDC1" stroke-width="0.2pt"><path style="fill:none" d="M 238.19 0 L 238.19 51.18" /></g><g style="--ltx-stroke-color:#B9BDC1;" stroke="#B9BDC1" stroke-width="0.2pt"><path style="fill:none" d="M 0 12.8 L 259.84 12.8" /></g><g style="--ltx-stroke-color:#B9BDC1;" stroke="#B9BDC1" stroke-width="0.2pt"><path style="fill:none" d="M 0 25.59 L 259.84 25.59" /></g><g style="--ltx-stroke-color:#B9BDC1;" stroke="#B9BDC1" stroke-width="0.2pt"><path style="fill:none" d="M 0 38.39 L 259.84 38.39" /></g><g style="--ltx-fill-color:#3A78A0;" fill="#3A78A0"><path style="stroke:none" d="M 43.31 25.59 M 43.31 25.59 L 43.31 38.39 L 64.96 38.39 L 64.96 25.59 Z M 64.96 38.39" /></g><g style="--ltx-stroke-color:#000000;" stroke="#000000" stroke-width="0.4pt"><path style="fill:none" d="M 43.31 25.59 M 43.31 25.59 L 43.31 38.39 L 64.96 38.39 L 64.96 25.59 Z M 64.96 38.39" /></g><path style="fill:none" d="M 0 -1.97 L 252.25 -1.97" /><g stroke-dasharray="none" stroke-dashoffset="0.0pt" stroke-linejoin="miter" transform="matrix(1.0 0.0 0.0 1.0 252.25 -1.97)"><path d="M 6.49 0 C 5.69 0.19 2.19 1.28 0 2.47 L 0 -2.47 C 2.19 -1.28 5.69 -0.19 6.49 0 Z" /></g><g style="--ltx-stroke-color:#000000;--ltx-fill-color:#000000;" fill="#000000" stroke="#000000" transform="matrix(1.0 0.0 0.0 1.0 249.11 -10.14)"><foreignobject style="--ltx-fo-width:1.95em;--ltx-fo-height:0.59em;--ltx-fo-depth:0em;font-size:7.97pt;" height="6.52" overflow="visible" transform="matrix(1 0 0 -1 0 6.52)" width="21.47"><span class="ltx_foreignobject_container"><span class="ltx_foreignobject_content"><span id="S6.F4.pic1.2" class="ltx_text" style="font-size:70%;">time</span></span></span></foreignobject></g><path style="fill:none" d="M -1.97 0 L -1.97 43.58" /><g stroke-dasharray="none" stroke-dashoffset="0.0pt" stroke-linejoin="miter" transform="matrix(0.0 1.0 -1.0 0.0 -1.97 43.58)"><path d="M 6.49 0 C 5.69 0.19 2.19 1.28 0 2.47 L 0 -2.47 C 2.19 -1.28 5.69 -0.19 6.49 0 Z" /></g><g style="--ltx-stroke-color:#000000;--ltx-fill-color:#000000;" fill="#000000" stroke="#000000" transform="matrix(1.0 0.0 0.0 1.0 -22.12 48.76)"><foreignobject style="--ltx-fo-width:1.68em;--ltx-fo-height:0.61em;--ltx-fo-depth:0.17em;font-size:7.97pt;" height="8.61" overflow="visible" transform="matrix(1 0 0 -1 0 6.73)" width="18.49"><span class="ltx_foreignobject_container"><span class="ltx_foreignobject_content"><span id="S6.F4.pic1.3" class="ltx_text" style="font-size:70%;">freq</span></span></span></foreignobject></g><g style="--ltx-stroke-color:#8B9096;" stroke="#8B9096" stroke-width="1.1pt"><path style="fill:none" d="M 259.84 -1.97 L 259.84 51.18" /></g><g style="--ltx-stroke-color:#A9AFB4;--ltx-fill-color:#A9AFB4;--ltx-fg-color:#A9AFB4;" color="#A9AFB4" fill="#A9AFB4" stroke="#A9AFB4" stroke-width="0.4pt"><path style="fill:none" d="M 259.84 2.36 L 264.96 -2.76" /></g><g style="--ltx-stroke-color:#A9AFB4;--ltx-fill-color:#A9AFB4;--ltx-fg-color:#A9AFB4;" color="#A9AFB4" fill="#A9AFB4" stroke="#A9AFB4" stroke-width="0.4pt"><path style="fill:none" d="M 259.84 10.24 L 264.96 5.12" /></g><g style="--ltx-stroke-color:#A9AFB4;--ltx-fill-color:#A9AFB4;--ltx-fg-color:#A9AFB4;" color="#A9AFB4" fill="#A9AFB4" stroke="#A9AFB4" stroke-width="0.4pt"><path style="fill:none" d="M 259.84 18.11 L 264.96 12.99" /></g><g style="--ltx-stroke-color:#A9AFB4;--ltx-fill-color:#A9AFB4;--ltx-fg-color:#A9AFB4;" color="#A9AFB4" fill="#A9AFB4" stroke="#A9AFB4" stroke-width="0.4pt"><path style="fill:none" d="M 259.84 25.98 L 264.96 20.87" /></g><g style="--ltx-stroke-color:#A9AFB4;--ltx-fill-color:#A9AFB4;--ltx-fg-color:#A9AFB4;" color="#A9AFB4" fill="#A9AFB4" stroke="#A9AFB4" stroke-width="0.4pt"><path style="fill:none" d="M 259.84 33.86 L 264.96 28.74" /></g><g style="--ltx-stroke-color:#A9AFB4;--ltx-fill-color:#A9AFB4;--ltx-fg-color:#A9AFB4;" color="#A9AFB4" fill="#A9AFB4" stroke="#A9AFB4" stroke-width="0.4pt"><path style="fill:none" d="M 259.84 41.73 L 264.96 36.61" /></g><g style="--ltx-stroke-color:#A9AFB4;--ltx-fill-color:#A9AFB4;--ltx-fg-color:#A9AFB4;" color="#A9AFB4" fill="#A9AFB4" stroke="#A9AFB4" stroke-width="0.4pt"><path style="fill:none" d="M 259.84 49.61 L 264.96 44.49" /></g><g style="--ltx-stroke-color:#8B9096;--ltx-fill-color:#8B9096;" fill="#8B9096" stroke="#8B9096" transform="matrix(0.0 1.0 -1.0 0.0 276.42 -1.58)"><foreignobject style="--ltx-fo-width:5.8em;--ltx-fo-height:0.51em;--ltx-fo-depth:0em;font-size:6.81pt;" height="4.8" overflow="visible" transform="matrix(1 0 0 -1 0 4.8)" width="54.58"><span class="ltx_foreignobject_container"><span class="ltx_foreignobject_content"><span id="S6.F4.pic1.4" class="ltx_text" style="font-size:50%;--ltx-fg-color:#8B9096;">fixed window</span></span></span></foreignobject></g><g style="--ltx-stroke-color:#000000;--ltx-fill-color:#000000;" fill="#000000" stroke="#000000" transform="matrix(1.0 0.0 0.0 1.0 34.59 -22)"><foreignobject style="--ltx-fo-width:8.8em;--ltx-fo-height:0.66em;--ltx-fo-depth:0.22em;font-size:7.97pt;" height="9.69" overflow="visible" transform="matrix(1 0 0 -1 0 7.26)" width="97.08"><span class="ltx_foreignobject_container"><span class="ltx_foreignobject_content"><span id="S6.F4.pic1.5" class="ltx_text" style="font-size:70%;">1,496 tokens / 30 s, </span><em id="S6.F4.pic1.6" class="ltx_emph ltx_font_italic" style="font-size:70%;">window-locked</em></span></span></foreignobject></g><g style="--ltx-stroke-color:#000000;--ltx-fill-color:#000000;" fill="#000000" stroke="#000000" transform="matrix(1.0 0.0 0.0 1.0 319.85 63.56)"><foreignobject style="--ltx-fo-width:10.02em;--ltx-fo-height:0.71em;--ltx-fo-depth:0.24em;font-size:8.5pt;" height="11.07" overflow="visible" transform="matrix(1 0 0 -1 0 8.3)" width="117.79"><span class="ltx_foreignobject_container"><span class="ltx_foreignobject_content"><span id="S6.F4.pic1.7" class="ltx_text ltx_font_bold" style="font-size:80%;">(b)<span id="S6.F4.pic1.7.1" class="ltx_text ltx_font_medium"> <math id="S6.F4.pic1.m2" class="ltx_Math" alttext="128\times 1" display="inline" intent=":literal"><semantics><mrow><mn>128</mn><mo lspace="0.222em" rspace="0.222em">×</mo><mn>1</mn></mrow><annotation encoding="application/x-tex">128\times 1</annotation></semantics></math> full-band columns</span></span></span></span></foreignobject></g><g style="--ltx-stroke-color:#E8F1F8;--ltx-fill-color:#E8F1F8;--ltx-fg-color:#E8F1F8;" color="#E8F1F8" fill="#E8F1F8" stroke="#E8F1F8"><path style="stroke:none" d="M 314.96 0 M 314.96 0 L 314.96 51.18 L 527.56 51.18 L 527.56 0 Z M 527.56 51.18" /></g><g style="--ltx-stroke-color:#7FB2D8;" stroke="#7FB2D8" stroke-width="0.2pt"><path style="fill:none" d="M 322.83 0 L 322.83 51.18" /></g><g style="--ltx-stroke-color:#7FB2D8;" stroke="#7FB2D8" stroke-width="0.2pt"><path style="fill:none" d="M 330.71 0 L 330.71 51.18" /></g><g style="--ltx-stroke-color:#7FB2D8;" stroke="#7FB2D8" stroke-width="0.2pt"><path style="fill:none" d="M 338.58 0 L 338.58 51.18" /></g><g style="--ltx-stroke-color:#7FB2D8;" stroke="#7FB2D8" stroke-width="0.2pt"><path style="fill:none" d="M 346.46 0 L 346.46 51.18" /></g><g style="--ltx-stroke-color:#7FB2D8;" stroke="#7FB2D8" stroke-width="0.2pt"><path style="fill:none" d="M 354.33 0 L 354.33 51.18" /></g><g style="--ltx-stroke-color:#7FB2D8;" stroke="#7FB2D8" stroke-width="0.2pt"><path style="fill:none" d="M 362.2 0 L 362.2 51.18" /></g><g style="--ltx-stroke-color:#7FB2D8;" stroke="#7FB2D8" stroke-width="0.2pt"><path style="fill:none" d="M 370.08 0 L 370.08 51.18" /></g><g style="--ltx-stroke-color:#7FB2D8;" stroke="#7FB2D8" stroke-width="0.2pt"><path style="fill:none" d="M 377.95 0 L 377.95 51.18" /></g><g style="--ltx-stroke-color:#7FB2D8;" stroke="#7FB2D8" stroke-width="0.2pt"><path style="fill:none" d="M 385.83 0 L 385.83 51.18" /></g><g style="--ltx-stroke-color:#7FB2D8;" stroke="#7FB2D8" stroke-width="0.2pt"><path style="fill:none" d="M 393.7 0 L 393.7 51.18" /></g><g style="--ltx-stroke-color:#7FB2D8;" stroke="#7FB2D8" stroke-width="0.2pt"><path style="fill:none" d="M 401.57 0 L 401.57 51.18" /></g><g style="--ltx-stroke-color:#7FB2D8;" stroke="#7FB2D8" stroke-width="0.2pt"><path style="fill:none" d="M 409.45 0 L 409.45 51.18" /></g><g style="--ltx-stroke-color:#7FB2D8;" stroke="#7FB2D8" stroke-width="0.2pt"><path style="fill:none" d="M 417.32 0 L 417.32 51.18" /></g><g style="--ltx-stroke-color:#7FB2D8;" stroke="#7FB2D8" stroke-width="0.2pt"><path style="fill:none" d="M 425.2 0 L 425.2 51.18" /></g><g style="--ltx-stroke-color:#7FB2D8;" stroke="#7FB2D8" stroke-width="0.2pt"><path style="fill:none" d="M 433.07 0 L 433.07 51.18" /></g><g style="--ltx-stroke-color:#7FB2D8;" stroke="#7FB2D8" stroke-width="0.2pt"><path style="fill:none" d="M 440.94 0 L 440.94 51.18" /></g><g style="--ltx-stroke-color:#7FB2D8;" stroke="#7FB2D8" stroke-width="0.2pt"><path style="fill:none" d="M 448.82 0 L 448.82 51.18" /></g><g style="--ltx-stroke-color:#7FB2D8;" stroke="#7FB2D8" stroke-width="0.2pt"><path style="fill:none" d="M 456.69 0 L 456.69 51.18" /></g><g style="--ltx-stroke-color:#7FB2D8;" stroke="#7FB2D8" stroke-width="0.2pt"><path style="fill:none" d="M 464.57 0 L 464.57 51.18" /></g><g style="--ltx-stroke-color:#7FB2D8;" stroke="#7FB2D8" stroke-width="0.2pt"><path style="fill:none" d="M 472.44 0 L 472.44 51.18" /></g><g style="--ltx-stroke-color:#7FB2D8;" stroke="#7FB2D8" stroke-width="0.2pt"><path style="fill:none" d="M 480.31 0 L 480.31 51.18" /></g><g style="--ltx-stroke-color:#7FB2D8;" stroke="#7FB2D8" stroke-width="0.2pt"><path style="fill:none" d="M 488.19 0 L 488.19 51.18" /></g><g style="--ltx-stroke-color:#7FB2D8;" stroke="#7FB2D8" stroke-width="0.2pt"><path style="fill:none" d="M 496.06 0 L 496.06 51.18" /></g><g style="--ltx-stroke-color:#7FB2D8;" stroke="#7FB2D8" stroke-width="0.2pt"><path style="fill:none" d="M 503.94 0 L 503.94 51.18" /></g><g style="--ltx-stroke-color:#7FB2D8;" stroke="#7FB2D8" stroke-width="0.2pt"><path style="fill:none" d="M 511.81 0 L 511.81 51.18" /></g><g style="--ltx-stroke-color:#7FB2D8;" stroke="#7FB2D8" stroke-width="0.2pt"><path style="fill:none" d="M 519.68 0 L 519.68 51.18" /></g><g style="--ltx-fill-color:#3A78A0;" fill="#3A78A0"><path style="stroke:none" d="M 330.71 0 M 330.71 0 L 330.71 51.18 L 338.58 51.18 L 338.58 0 Z M 338.58 51.18" /></g><g style="--ltx-stroke-color:#7FB2D8;" stroke="#7FB2D8" stroke-width="0.2pt"><path style="fill:none" d="M 330.71 0 M 330.71 0 L 330.71 51.18 L 338.58 51.18 L 338.58 0 Z M 338.58 51.18" /></g><g style="--ltx-stroke-color:#000000;" stroke="#000000" stroke-width="0.4pt"><path style="fill:none" d="M 314.96 0 L 314.96 51.18 L 527.56 51.18" /></g><g style="--ltx-stroke-color:#000000;" stroke="#000000" stroke-width="0.4pt"><path style="fill:none" d="M 314.96 0 L 527.56 0" /></g><g style="--ltx-stroke-color:#7FB2D8;" stroke="#7FB2D8" stroke-dasharray="3.0pt,3.0pt" stroke-dashoffset="0.0pt" stroke-width="0.2pt"><path style="fill:none" d="M 535.43 0 L 535.43 51.18" /></g><g style="--ltx-stroke-color:#7FB2D8;" stroke="#7FB2D8" stroke-dasharray="3.0pt,3.0pt" stroke-dashoffset="0.0pt" stroke-width="0.2pt"><path style="fill:none" d="M 543.31 0 L 543.31 51.18" /></g><g style="--ltx-stroke-color:#7FB2D8;" stroke="#7FB2D8" stroke-dasharray="3.0pt,3.0pt" stroke-dashoffset="0.0pt" stroke-width="0.2pt"><path style="fill:none" d="M 551.18 0 L 551.18 51.18" /></g><g style="--ltx-stroke-color:#000000;--ltx-fill-color:#000000;" fill="#000000" stroke="#000000" transform="matrix(1.0 0.0 0.0 1.0 556.87 22.82)"><foreignobject style="--ltx-fo-width:0.71em;--ltx-fo-height:0.66em;--ltx-fo-depth:0.19em;font-size:8.5pt;" height="9.96" overflow="visible" transform="matrix(1 0 0 -1 0 7.75)" width="8.3"><span class="ltx_foreignobject_container"><span class="ltx_foreignobject_content"><math id="S6.F4.pic1.m3" class="ltx_Math" alttext="\cdots" display="inline" intent=":literal"><semantics><mo mathsize="0.800em">⋯</mo><annotation encoding="application/x-tex">\cdots</annotation></semantics></math></span></span></foreignobject></g><path style="fill:none" d="M 314.96 -1.97 L 543.58 -1.97" /><g stroke-dasharray="none" stroke-dashoffset="0.0pt" stroke-linejoin="miter" transform="matrix(1.0 0.0 0.0 1.0 543.58 -1.97)"><path d="M 6.49 0 C 5.69 0.19 2.19 1.28 0 2.47 L 0 -2.47 C 2.19 -1.28 5.69 -0.19 6.49 0 Z" /></g><g style="--ltx-stroke-color:#000000;--ltx-fill-color:#000000;" fill="#000000" stroke="#000000" transform="matrix(1.0 0.0 0.0 1.0 540.45 -10.14)"><foreignobject style="--ltx-fo-width:1.95em;--ltx-fo-height:0.59em;--ltx-fo-depth:0em;font-size:7.97pt;" height="6.52" overflow="visible" transform="matrix(1 0 0 -1 0 6.52)" width="21.47"><span class="ltx_foreignobject_container"><span class="ltx_foreignobject_content"><span id="S6.F4.pic1.8" class="ltx_text" style="font-size:70%;">time</span></span></span></foreignobject></g><path style="fill:none" d="M 312.6 0 L 312.6 43.58" /><g stroke-dasharray="none" stroke-dashoffset="0.0pt" stroke-linejoin="miter" transform="matrix(0.0 1.0 -1.0 0.0 312.6 43.58)"><path d="M 6.49 0 C 5.69 0.19 2.19 1.28 0 2.47 L 0 -2.47 C 2.19 -1.28 5.69 -0.19 6.49 0 Z" /></g><g style="--ltx-stroke-color:#000000;--ltx-fill-color:#000000;" fill="#000000" stroke="#000000" transform="matrix(1.0 0.0 0.0 1.0 292.45 48.76)"><foreignobject style="--ltx-fo-width:1.68em;--ltx-fo-height:0.61em;--ltx-fo-depth:0.17em;font-size:7.97pt;" height="8.61" overflow="visible" transform="matrix(1 0 0 -1 0 6.73)" width="18.49"><span class="ltx_foreignobject_container"><span class="ltx_foreignobject_content"><span id="S6.F4.pic1.9" class="ltx_text" style="font-size:70%;">freq</span></span></span></foreignobject></g><g style="--ltx-stroke-color:#000000;--ltx-fill-color:#000000;" fill="#000000" stroke="#000000" transform="matrix(1.0 0.0 0.0 1.0 345.23 -22)"><foreignobject style="--ltx-fo-width:8.8em;--ltx-fo-height:0.66em;--ltx-fo-depth:0.22em;font-size:7.97pt;" height="9.69" overflow="visible" transform="matrix(1 0 0 -1 0 7.26)" width="97.08"><span class="ltx_foreignobject_container"><span class="ltx_foreignobject_content"><span id="S6.F4.pic1.10" class="ltx_text" style="font-size:70%;">3,000 tokens / 30 s, </span><em id="S6.F4.pic1.11" class="ltx_emph ltx_font_italic" style="font-size:70%;">1-D stream</em></span></span></foreignobject></g><g style="--ltx-stroke-color:#000000;--ltx-fill-color:#000000;" fill="#000000" stroke="#000000" transform="matrix(1.0 0.0 0.0 1.0 4.89 -41.56)"><foreignobject style="--ltx-fo-width:21.6em;--ltx-fo-height:0.71em;--ltx-fo-depth:0.24em;font-size:8.5pt;" height="11.07" overflow="visible" transform="matrix(1 0 0 -1 0 8.3)" width="254.05"><span class="ltx_foreignobject_container"><span class="ltx_foreignobject_content"><span id="S6.F4.pic1.12" class="ltx_text ltx_font_bold" style="font-size:80%;">(c)<span id="S6.F4.pic1.12.1" class="ltx_text ltx_font_medium"> one continuous stream over a full soundscape</span></span></span></span></foreignobject></g><g style="--ltx-stroke-color:#17608F;--ltx-fill-color:#17608F;" fill="#17608F" stroke="#17608F" transform="matrix(1.0 0.0 0.0 1.0 8.83 -56.76)"><foreignobject style="--ltx-fg-color:#17608F;--ltx-fo-width:21.42em;--ltx-fo-height:0.51em;--ltx-fo-depth:0.14em;font-size:6.81pt;" color="#17608F" height="6.15" overflow="visible" transform="matrix(1 0 0 -1 0 4.8)" width="201.7"><span class="ltx_foreignobject_container"><span class="ltx_foreignobject_content"><span id="S6.F4.pic1.13" class="ltx_text" style="font-size:50%;">bird calls = contiguous full-spectrum token runs</span></span></span></foreignobject></g><g style="--ltx-stroke-color:#17608F;--ltx-fill-color:#17608F;" fill="#17608F" stroke="#17608F" transform="matrix(1.0 0.0 0.0 1.0 369.38 -56.37)"><foreignobject style="--ltx-fg-color:#17608F;--ltx-fo-width:15.44em;--ltx-fo-height:0.55em;--ltx-fo-depth:0.18em;font-size:6.81pt;" color="#17608F" height="6.92" overflow="visible" transform="matrix(1 0 0 -1 0 5.19)" width="145.42"><span class="ltx_foreignobject_container"><span class="ltx_foreignobject_content"><span id="S6.F4.pic1.14" class="ltx_text" style="font-size:50%;">extends to arbitrary length (60 s+)</span></span></span></foreignobject></g><g style="--ltx-stroke-color:#E8F1F8;--ltx-fill-color:#E8F1F8;--ltx-fg-color:#E8F1F8;" color="#E8F1F8" fill="#E8F1F8" stroke="#E8F1F8"><path style="stroke:none" d="M 0 -116.14 M 0 -116.14 L 0 -64.96 L 519.68 -64.96 L 519.68 -116.14 Z M 519.68 -64.96" /></g><g style="--ltx-fill-color:#3A78A0;" fill="#3A78A0"><path style="stroke:none" d="M 55.12 -116.14 M 55.12 -116.14 L 55.12 -64.96 L 62.99 -64.96 L 62.99 -116.14 Z M 62.99 -64.96" /></g><g style="--ltx-fill-color:#3A78A0;" fill="#3A78A0"><path style="stroke:none" d="M 62.99 -116.14 M 62.99 -116.14 L 62.99 -64.96 L 70.87 -64.96 L 70.87 -116.14 Z M 70.87 -64.96" /></g><g style="--ltx-fill-color:#3A78A0;" fill="#3A78A0"><path style="stroke:none" d="M 70.87 -116.14 M 70.87 -116.14 L 70.87 -64.96 L 78.74 -64.96 L 78.74 -116.14 Z M 78.74 -64.96" /></g><g style="--ltx-fill-color:#3A78A0;" fill="#3A78A0"><path style="stroke:none" d="M 212.6 -116.14 M 212.6 -116.14 L 212.6 -64.96 L 220.47 -64.96 L 220.47 -116.14 Z M 220.47 -64.96" /></g><g style="--ltx-fill-color:#3A78A0;" fill="#3A78A0"><path style="stroke:none" d="M 220.47 -116.14 M 220.47 -116.14 L 220.47 -64.96 L 228.35 -64.96 L 228.35 -116.14 Z M 228.35 -64.96" /></g><g style="--ltx-fill-color:#3A78A0;" fill="#3A78A0"><path style="stroke:none" d="M 228.35 -116.14 M 228.35 -116.14 L 228.35 -64.96 L 236.22 -64.96 L 236.22 -116.14 Z M 236.22 -64.96" /></g><g style="--ltx-fill-color:#3A78A0;" fill="#3A78A0"><path style="stroke:none" d="M 236.22 -116.14 M 236.22 -116.14 L 236.22 -64.96 L 244.09 -64.96 L 244.09 -116.14 Z M 244.09 -64.96" /></g><g style="--ltx-fill-color:#3A78A0;" fill="#3A78A0"><path style="stroke:none" d="M 393.7 -116.14 M 393.7 -116.14 L 393.7 -64.96 L 401.57 -64.96 L 401.57 -116.14 Z M 401.57 -64.96" /></g><g style="--ltx-fill-color:#3A78A0;" fill="#3A78A0"><path style="stroke:none" d="M 401.57 -116.14 M 401.57 -116.14 L 401.57 -64.96 L 409.45 -64.96 L 409.45 -116.14 Z M 409.45 -64.96" /></g><g style="--ltx-stroke-color:#7FB2D8;" stroke="#7FB2D8" stroke-width="0.2pt"><path style="fill:none" d="M 7.87 -116.14 L 7.87 -64.96" /></g><g style="--ltx-stroke-color:#7FB2D8;" stroke="#7FB2D8" stroke-width="0.2pt"><path style="fill:none" d="M 15.75 -116.14 L 15.75 -64.96" /></g><g style="--ltx-stroke-color:#7FB2D8;" stroke="#7FB2D8" stroke-width="0.2pt"><path style="fill:none" d="M 23.62 -116.14 L 23.62 -64.96" /></g><g style="--ltx-stroke-color:#7FB2D8;" stroke="#7FB2D8" stroke-width="0.2pt"><path style="fill:none" d="M 31.5 -116.14 L 31.5 -64.96" /></g><g style="--ltx-stroke-color:#7FB2D8;" stroke="#7FB2D8" stroke-width="0.2pt"><path style="fill:none" d="M 39.37 -116.14 L 39.37 -64.96" /></g><g style="--ltx-stroke-color:#7FB2D8;" stroke="#7FB2D8" stroke-width="0.2pt"><path style="fill:none" d="M 47.24 -116.14 L 47.24 -64.96" /></g><g style="--ltx-stroke-color:#7FB2D8;" stroke="#7FB2D8" stroke-width="0.2pt"><path style="fill:none" d="M 55.12 -116.14 L 55.12 -64.96" /></g><g style="--ltx-stroke-color:#7FB2D8;" stroke="#7FB2D8" stroke-width="0.2pt"><path style="fill:none" d="M 62.99 -116.14 L 62.99 -64.96" /></g><g style="--ltx-stroke-color:#7FB2D8;" stroke="#7FB2D8" stroke-width="0.2pt"><path style="fill:none" d="M 70.87 -116.14 L 70.87 -64.96" /></g><g style="--ltx-stroke-color:#7FB2D8;" stroke="#7FB2D8" stroke-width="0.2pt"><path style="fill:none" d="M 78.74 -116.14 L 78.74 -64.96" /></g><g style="--ltx-stroke-color:#7FB2D8;" stroke="#7FB2D8" stroke-width="0.2pt"><path style="fill:none" d="M 86.61 -116.14 L 86.61 -64.96" /></g><g style="--ltx-stroke-color:#7FB2D8;" stroke="#7FB2D8" stroke-width="0.2pt"><path style="fill:none" d="M 94.49 -116.14 L 94.49 -64.96" /></g><g style="--ltx-stroke-color:#7FB2D8;" stroke="#7FB2D8" stroke-width="0.2pt"><path style="fill:none" d="M 102.36 -116.14 L 102.36 -64.96" /></g><g style="--ltx-stroke-color:#7FB2D8;" stroke="#7FB2D8" stroke-width="0.2pt"><path style="fill:none" d="M 110.24 -116.14 L 110.24 -64.96" /></g><g style="--ltx-stroke-color:#7FB2D8;" stroke="#7FB2D8" stroke-width="0.2pt"><path style="fill:none" d="M 118.11 -116.14 L 118.11 -64.96" /></g><g style="--ltx-stroke-color:#7FB2D8;" stroke="#7FB2D8" stroke-width="0.2pt"><path style="fill:none" d="M 125.98 -116.14 L 125.98 -64.96" /></g><g style="--ltx-stroke-color:#7FB2D8;" stroke="#7FB2D8" stroke-width="0.2pt"><path style="fill:none" d="M 133.86 -116.14 L 133.86 -64.96" /></g><g style="--ltx-stroke-color:#7FB2D8;" stroke="#7FB2D8" stroke-width="0.2pt"><path style="fill:none" d="M 141.73 -116.14 L 141.73 -64.96" /></g><g style="--ltx-stroke-color:#7FB2D8;" stroke="#7FB2D8" stroke-width="0.2pt"><path style="fill:none" d="M 149.61 -116.14 L 149.61 -64.96" /></g><g style="--ltx-stroke-color:#7FB2D8;" stroke="#7FB2D8" stroke-width="0.2pt"><path style="fill:none" d="M 157.48 -116.14 L 157.48 -64.96" /></g><g style="--ltx-stroke-color:#7FB2D8;" stroke="#7FB2D8" stroke-width="0.2pt"><path style="fill:none" d="M 165.35 -116.14 L 165.35 -64.96" /></g><g style="--ltx-stroke-color:#7FB2D8;" stroke="#7FB2D8" stroke-width="0.2pt"><path style="fill:none" d="M 173.23 -116.14 L 173.23 -64.96" /></g><g style="--ltx-stroke-color:#7FB2D8;" stroke="#7FB2D8" stroke-width="0.2pt"><path style="fill:none" d="M 181.1 -116.14 L 181.1 -64.96" /></g><g style="--ltx-stroke-color:#7FB2D8;" stroke="#7FB2D8" stroke-width="0.2pt"><path style="fill:none" d="M 188.98 -116.14 L 188.98 -64.96" /></g><g style="--ltx-stroke-color:#7FB2D8;" stroke="#7FB2D8" stroke-width="0.2pt"><path style="fill:none" d="M 196.85 -116.14 L 196.85 -64.96" /></g><g style="--ltx-stroke-color:#7FB2D8;" stroke="#7FB2D8" stroke-width="0.2pt"><path style="fill:none" d="M 204.72 -116.14 L 204.72 -64.96" /></g><g style="--ltx-stroke-color:#7FB2D8;" stroke="#7FB2D8" stroke-width="0.2pt"><path style="fill:none" d="M 212.6 -116.14 L 212.6 -64.96" /></g><g style="--ltx-stroke-color:#7FB2D8;" stroke="#7FB2D8" stroke-width="0.2pt"><path style="fill:none" d="M 220.47 -116.14 L 220.47 -64.96" /></g><g style="--ltx-stroke-color:#7FB2D8;" stroke="#7FB2D8" stroke-width="0.2pt"><path style="fill:none" d="M 228.35 -116.14 L 228.35 -64.96" /></g><g style="--ltx-stroke-color:#7FB2D8;" stroke="#7FB2D8" stroke-width="0.2pt"><path style="fill:none" d="M 236.22 -116.14 L 236.22 -64.96" /></g><g style="--ltx-stroke-color:#7FB2D8;" stroke="#7FB2D8" stroke-width="0.2pt"><path style="fill:none" d="M 244.09 -116.14 L 244.09 -64.96" /></g><g style="--ltx-stroke-color:#7FB2D8;" stroke="#7FB2D8" stroke-width="0.2pt"><path style="fill:none" d="M 251.97 -116.14 L 251.97 -64.96" /></g><g style="--ltx-stroke-color:#7FB2D8;" stroke="#7FB2D8" stroke-width="0.2pt"><path style="fill:none" d="M 259.84 -116.14 L 259.84 -64.96" /></g><g style="--ltx-stroke-color:#7FB2D8;" stroke="#7FB2D8" stroke-width="0.2pt"><path style="fill:none" d="M 267.72 -116.14 L 267.72 -64.96" /></g><g style="--ltx-stroke-color:#7FB2D8;" stroke="#7FB2D8" stroke-width="0.2pt"><path style="fill:none" d="M 275.59 -116.14 L 275.59 -64.96" /></g><g style="--ltx-stroke-color:#7FB2D8;" stroke="#7FB2D8" stroke-width="0.2pt"><path style="fill:none" d="M 283.46 -116.14 L 283.46 -64.96" /></g><g style="--ltx-stroke-color:#7FB2D8;" stroke="#7FB2D8" stroke-width="0.2pt"><path style="fill:none" d="M 291.34 -116.14 L 291.34 -64.96" /></g><g style="--ltx-stroke-color:#7FB2D8;" stroke="#7FB2D8" stroke-width="0.2pt"><path style="fill:none" d="M 299.21 -116.14 L 299.21 -64.96" /></g><g style="--ltx-stroke-color:#7FB2D8;" stroke="#7FB2D8" stroke-width="0.2pt"><path style="fill:none" d="M 307.09 -116.14 L 307.09 -64.96" /></g><g style="--ltx-stroke-color:#7FB2D8;" stroke="#7FB2D8" stroke-width="0.2pt"><path style="fill:none" d="M 314.96 -116.14 L 314.96 -64.96" /></g><g style="--ltx-stroke-color:#7FB2D8;" stroke="#7FB2D8" stroke-width="0.2pt"><path style="fill:none" d="M 322.83 -116.14 L 322.83 -64.96" /></g><g style="--ltx-stroke-color:#7FB2D8;" stroke="#7FB2D8" stroke-width="0.2pt"><path style="fill:none" d="M 330.71 -116.14 L 330.71 -64.96" /></g><g style="--ltx-stroke-color:#7FB2D8;" stroke="#7FB2D8" stroke-width="0.2pt"><path style="fill:none" d="M 338.58 -116.14 L 338.58 -64.96" /></g><g style="--ltx-stroke-color:#7FB2D8;" stroke="#7FB2D8" stroke-width="0.2pt"><path style="fill:none" d="M 346.46 -116.14 L 346.46 -64.96" /></g><g style="--ltx-stroke-color:#7FB2D8;" stroke="#7FB2D8" stroke-width="0.2pt"><path style="fill:none" d="M 354.33 -116.14 L 354.33 -64.96" /></g><g style="--ltx-stroke-color:#7FB2D8;" stroke="#7FB2D8" stroke-width="0.2pt"><path style="fill:none" d="M 362.2 -116.14 L 362.2 -64.96" /></g><g style="--ltx-stroke-color:#7FB2D8;" stroke="#7FB2D8" stroke-width="0.2pt"><path style="fill:none" d="M 370.08 -116.14 L 370.08 -64.96" /></g><g style="--ltx-stroke-color:#7FB2D8;" stroke="#7FB2D8" stroke-width="0.2pt"><path style="fill:none" d="M 377.95 -116.14 L 377.95 -64.96" /></g><g style="--ltx-stroke-color:#7FB2D8;" stroke="#7FB2D8" stroke-width="0.2pt"><path style="fill:none" d="M 385.83 -116.14 L 385.83 -64.96" /></g><g style="--ltx-stroke-color:#7FB2D8;" stroke="#7FB2D8" stroke-width="0.2pt"><path style="fill:none" d="M 393.7 -116.14 L 393.7 -64.96" /></g><g style="--ltx-stroke-color:#7FB2D8;" stroke="#7FB2D8" stroke-width="0.2pt"><path style="fill:none" d="M 401.57 -116.14 L 401.57 -64.96" /></g><g style="--ltx-stroke-color:#7FB2D8;" stroke="#7FB2D8" stroke-width="0.2pt"><path style="fill:none" d="M 409.45 -116.14 L 409.45 -64.96" /></g><g style="--ltx-stroke-color:#7FB2D8;" stroke="#7FB2D8" stroke-width="0.2pt"><path style="fill:none" d="M 417.32 -116.14 L 417.32 -64.96" /></g><g style="--ltx-stroke-color:#7FB2D8;" stroke="#7FB2D8" stroke-width="0.2pt"><path style="fill:none" d="M 425.2 -116.14 L 425.2 -64.96" /></g><g style="--ltx-stroke-color:#7FB2D8;" stroke="#7FB2D8" stroke-width="0.2pt"><path style="fill:none" d="M 433.07 -116.14 L 433.07 -64.96" /></g><g style="--ltx-stroke-color:#7FB2D8;" stroke="#7FB2D8" stroke-width="0.2pt"><path style="fill:none" d="M 440.94 -116.14 L 440.94 -64.96" /></g><g style="--ltx-stroke-color:#7FB2D8;" stroke="#7FB2D8" stroke-width="0.2pt"><path style="fill:none" d="M 448.82 -116.14 L 448.82 -64.96" /></g><g style="--ltx-stroke-color:#7FB2D8;" stroke="#7FB2D8" stroke-width="0.2pt"><path style="fill:none" d="M 456.69 -116.14 L 456.69 -64.96" /></g><g style="--ltx-stroke-color:#7FB2D8;" stroke="#7FB2D8" stroke-width="0.2pt"><path style="fill:none" d="M 464.57 -116.14 L 464.57 -64.96" /></g><g style="--ltx-stroke-color:#7FB2D8;" stroke="#7FB2D8" stroke-width="0.2pt"><path style="fill:none" d="M 472.44 -116.14 L 472.44 -64.96" /></g><g style="--ltx-stroke-color:#7FB2D8;" stroke="#7FB2D8" stroke-width="0.2pt"><path style="fill:none" d="M 480.31 -116.14 L 480.31 -64.96" /></g><g style="--ltx-stroke-color:#7FB2D8;" stroke="#7FB2D8" stroke-width="0.2pt"><path style="fill:none" d="M 488.19 -116.14 L 488.19 -64.96" /></g><g style="--ltx-stroke-color:#7FB2D8;" stroke="#7FB2D8" stroke-width="0.2pt"><path style="fill:none" d="M 496.06 -116.14 L 496.06 -64.96" /></g><g style="--ltx-stroke-color:#7FB2D8;" stroke="#7FB2D8" stroke-width="0.2pt"><path style="fill:none" d="M 503.94 -116.14 L 503.94 -64.96" /></g><g style="--ltx-stroke-color:#7FB2D8;" stroke="#7FB2D8" stroke-width="0.2pt"><path style="fill:none" d="M 511.81 -116.14 L 511.81 -64.96" /></g><g style="--ltx-stroke-color:#000000;" stroke="#000000" stroke-width="0.4pt"><path style="fill:none" d="M 0 -64.96 L 519.68 -64.96" /></g><g style="--ltx-stroke-color:#000000;" stroke="#000000" stroke-width="0.4pt"><path style="fill:none" d="M 0 -116.14 L 519.68 -116.14" /></g><g style="--ltx-stroke-color:#000000;" stroke="#000000" stroke-width="0.4pt"><path style="fill:none" d="M 0 -116.14 L 0 -64.96" /></g><g style="--ltx-stroke-color:#7FB2D8;" stroke="#7FB2D8" stroke-dasharray="3.0pt,3.0pt" stroke-dashoffset="0.0pt" stroke-width="0.2pt"><path style="fill:none" d="M 527.56 -116.14 L 527.56 -64.96" /></g><g style="--ltx-stroke-color:#7FB2D8;" stroke="#7FB2D8" stroke-dasharray="3.0pt,3.0pt" stroke-dashoffset="0.0pt" stroke-width="0.2pt"><path style="fill:none" d="M 535.43 -116.14 L 535.43 -64.96" /></g><g style="--ltx-stroke-color:#7FB2D8;" stroke="#7FB2D8" stroke-dasharray="3.0pt,3.0pt" stroke-dashoffset="0.0pt" stroke-width="0.2pt"><path style="fill:none" d="M 543.31 -116.14 L 543.31 -64.96" /></g><g style="--ltx-stroke-color:#000000;--ltx-fill-color:#000000;" fill="#000000" stroke="#000000" transform="matrix(1.0 0.0 0.0 1.0 545.06 -93.32)"><foreignobject style="--ltx-fo-width:0.71em;--ltx-fo-height:0.66em;--ltx-fo-depth:0.19em;font-size:8.5pt;" height="9.96" overflow="visible" transform="matrix(1 0 0 -1 0 7.75)" width="8.3"><span class="ltx_foreignobject_container"><span class="ltx_foreignobject_content"><math id="S6.F4.pic1.m4" class="ltx_Math" alttext="\cdots" display="inline" intent=":literal"><semantics><mo mathsize="0.800em">⋯</mo><annotation encoding="application/x-tex">\cdots</annotation></semantics></math></span></span></foreignobject></g><g style="--ltx-stroke-color:#17608F;--ltx-fill-color:#17608F;--ltx-fg-color:#17608F;" color="#17608F" fill="#17608F" stroke="#17608F"><path style="fill:none" d="M 557.09 -90.55 L 563.27 -90.55" /></g><g style="--ltx-stroke-color:#17608F;--ltx-fill-color:#17608F;--ltx-fg-color:#17608F;" color="#17608F" fill="#17608F" stroke="#17608F" stroke-dasharray="none" stroke-dashoffset="0.0pt" stroke-linejoin="miter" transform="matrix(1.0 0.0 0.0 1.0 563.27 -90.55)"><path d="M 6.49 0 C 5.69 0.19 2.19 1.28 0 2.47 L 0 -2.47 C 2.19 -1.28 5.69 -0.19 6.49 0 Z" /></g><g style="--ltx-stroke-color:#17608F;" stroke="#17608F" stroke-width="0.6pt"><path style="fill:none" d="M 74.1 -120.17 C 127.44 -135.46 167.84 -135.46 221.18 -120.17" /><g stroke-dasharray="none" stroke-dashoffset="0.0pt" stroke-linejoin="miter" transform="matrix(-0.96126 0.27563 -0.27563 -0.96126 74.1 -120.17)"><path d="M 5.8 0 C 5.09 0.17 1.96 1.16 0 2.23 L 0 -2.23 C 1.96 -1.16 5.09 -0.17 5.8 0 Z" /></g><g stroke-dasharray="none" stroke-dashoffset="0.0pt" stroke-linejoin="miter" transform="matrix(0.96126 0.27563 -0.27563 0.96126 221.18 -120.17)"><path d="M 5.8 0 C 5.09 0.17 1.96 1.16 0 2.23 L 0 -2.23 C 1.96 -1.16 5.09 -0.17 5.8 0 Z" /></g></g><g style="--ltx-stroke-color:#17608F;" stroke="#17608F" stroke-width="0.6pt"><path style="fill:none" d="M 235.52 -120.17 C 293.28 -136.73 336.64 -136.73 394.4 -120.17" /><g stroke-dasharray="none" stroke-dashoffset="0.0pt" stroke-linejoin="miter" transform="matrix(-0.96126 0.27563 -0.27563 -0.96126 235.52 -120.17)"><path d="M 5.8 0 C 5.09 0.17 1.96 1.16 0 2.23 L 0 -2.23 C 1.96 -1.16 5.09 -0.17 5.8 0 Z" /></g><g stroke-dasharray="none" stroke-dashoffset="0.0pt" stroke-linejoin="miter" transform="matrix(0.96126 0.27563 -0.27563 0.96126 394.4 -120.17)"><path d="M 5.8 0 C 5.09 0.17 1.96 1.16 0 2.23 L 0 -2.23 C 1.96 -1.16 5.09 -0.17 5.8 0 Z" /></g></g><g style="--ltx-stroke-color:#17608F;" stroke="#17608F" stroke-width="0.6pt"><path style="fill:none" d="M 74.3 -121.25 C 195.82 -140.49 272.68 -140.49 394.21 -121.25" /><g stroke-dasharray="none" stroke-dashoffset="0.0pt" stroke-linejoin="miter" transform="matrix(-0.98769 0.15643 -0.15643 -0.98769 74.3 -121.25)"><path d="M 5.8 0 C 5.09 0.17 1.96 1.16 0 2.23 L 0 -2.23 C 1.96 -1.16 5.09 -0.17 5.8 0 Z" /></g><g stroke-dasharray="none" stroke-dashoffset="0.0pt" stroke-linejoin="miter" transform="matrix(0.98769 0.15643 -0.15643 0.98769 394.21 -121.25)"><path d="M 5.8 0 C 5.09 0.17 1.96 1.16 0 2.23 L 0 -2.23 C 1.96 -1.16 5.09 -0.17 5.8 0 Z" /></g></g><g style="--ltx-stroke-color:#000000;--ltx-fill-color:#000000;" fill="#000000" stroke="#000000" transform="matrix(1.0 0.0 0.0 1.0 52.94 -149.95)"><foreignobject style="--ltx-fo-width:37.57em;--ltx-fo-height:0.66em;--ltx-fo-depth:0.22em;font-size:7.97pt;" height="9.69" overflow="visible" transform="matrix(1 0 0 -1 0 7.26)" width="414.4"><span class="ltx_foreignobject_container"><span class="ltx_foreignobject_content"><span id="S6.F4.pic1.15" class="ltx_text" style="font-size:70%;">any sequence model contextualizes the whole stream (attention or a linear-time scan)</span></span></span></foreignobject></g></g></svg>