<svg id="S2.SS1.p2.pic1" class="ltx_picture" height="255.72" overflow="visible" version="1.1" viewbox="0 0 550 255.72" width="550"><g style="--ltx-stroke-color:#000000;--ltx-fill-color:#000000;" fill="#000000" stroke="#000000" stroke-width="0.4pt" transform="translate(0,255.72) matrix(1 0 0 -1 0 0)"><g style="--ltx-fill-color:#404040;" fill="#404040" fill-opacity="1.0"><path style="stroke:none" d="M 0 5.91 L 0 249.81 C 0 253.07 2.64 255.72 5.91 255.72 L 544.09 255.72 C 547.36 255.72 550 253.07 550 249.81 L 550 5.91 C 550 2.64 547.36 0 544.09 0 L 5.91 0 C 2.64 0 0 2.64 0 5.91 Z" /></g><g style="--ltx-fill-color:#F2F2F2;" fill="#F2F2F2" fill-opacity="1.0"><path style="stroke:none" d="M 1.97 5.91 L 1.97 249.81 C 1.97 251.98 3.73 253.75 5.91 253.75 L 544.09 253.75 C 546.27 253.75 548.03 251.98 548.03 249.81 L 548.03 5.91 C 548.03 3.73 546.27 1.97 544.09 1.97 L 5.91 1.97 C 3.73 1.97 1.97 3.73 1.97 5.91 Z" /></g><g fill-opacity="1.0" transform="matrix(1.0 0.0 0.0 1.0 21.65 16.47)"><foreignobject style="--ltx-fo-width:36.62em;--ltx-fo-height:16.29em;--ltx-fo-depth:0.19em;font-size:10pt;" height="228.16" overflow="visible" transform="matrix(1 0 0 -1 0 225.47)" width="506.72"><span class="ltx_foreignobject_container"><span class="ltx_foreignobject_content">
<span id="S2.SS1.p2.pic1.1" class="ltx_inline-block ltx_minipage ltx_align_bottom" style="width:36.62em;">
<span id="S2.SS1.p2.pic1.1.1" class="ltx_p"><span id="S2.SS1.p2.pic1.1.1.1" class="ltx_text ltx_font_bold" style="--ltx-fg-color:#000000;">Our approach:<span id="S2.SS1.p2.pic1.1.1.1.1" class="ltx_text ltx_font_medium"> Addressing these challenges, we propose a bird sound monitoring benchmark suite with a unified evaluation protocol and a diverse set of tasks, following <cite class="ltx_cite ltx_citemacro_citet"><a href="#bib.bib23" title class="ltx_ref">Wang et al. (2018)</a></cite> and <cite class="ltx_cite ltx_citemacro_citet"><a href="#bib.bib17" title class="ltx_ref">Rauch et al. (2023)</a></cite>. This involves curating various data sources and types, enabling the assessment of the generalization capabilities of DL models when recognizing bird sounds in real-world scenarios. Additionally, we aim to establish baseline results for our benchmark through an extensive empirical study. This serves as a reference point for ongoing work and a means to identify future challenges. By integrating our curated data set collection into Huggingface Datasets <cite class="ltx_cite ltx_citemacro_citep">(<a href="#bib.bib25" title class="ltx_ref">Wolf et al., 2020</a>; <a href="#bib.bib12" title class="ltx_ref">Lhoest et al., 2021</a>)</cite>, we strive to ease accessibility, refine the evaluation process and foster more consistent experimental designs in forthcoming research.</span></span></span>
</span></span></span></foreignobject></g></g></svg>